<?xml version="1.0" standalone="no"?>
<!DOCTYPE svg PUBLIC "-//W3C//DTD SVG 20010904//EN"
 "http://www.w3.org/TR/2001/REC-SVG-20010904/DTD/svg10.dtd">
<svg version="1.0" xmlns="http://www.w3.org/2000/svg"
 width="1024.000000pt" height="1024.000000pt" viewBox="0 0 1024.000000 1024.000000"
 preserveAspectRatio="xMidYMid meet">
<metadata>
Created by potrace 1.14, written by Peter Selinger 2001-2017
</metadata>
<g transform="translate(0.000000,1024.000000) scale(0.100000,-0.100000)"
fill="#000000" stroke="none">
<path d="M7145 9810 c-27 -5 -72 -11 -100 -15 -27 -4 -53 -9 -56 -11 -3 -2
-21 -6 -40 -9 -104 -18 -337 -84 -524 -148 -132 -45 -382 -147 -422 -173 -13
-8 -23 -12 -23 -10 0 10 -368 -183 -515 -269 -165 -97 -369 -231 -512 -337
-51 -37 -93 -65 -93 -60 0 25 -147 156 -260 233 -70 47 -76 51 -183 111 -241
137 -853 370 -1137 432 -14 3 -65 15 -115 26 -88 19 -225 45 -295 54 -33 5
-65 9 -155 21 -22 3 -70 7 -106 10 -65 6 -67 5 -71 -19 -4 -21 3 -86 27 -246
3 -19 8 -51 11 -70 3 -19 9 -60 14 -90 14 -84 17 -104 39 -260 11 -80 23 -170
26 -200 3 -30 8 -66 10 -80 2 -14 6 -56 10 -93 3 -37 8 -76 10 -85 1 -9 6 -53
10 -97 4 -44 8 -93 10 -110 2 -16 7 -60 10 -99 4 -38 8 -77 10 -86 2 -9 6 -61
10 -116 4 -54 9 -101 10 -104 10 -16 -16 -30 -65 -36 -54 -6 -741 -6 -950 0
-539 17 -1041 25 -1093 18 -38 -6 -50 -34 -51 -117 -1 -134 25 -267 93 -475
88 -266 248 -612 378 -817 18 -29 33 -55 33 -58 0 -25 295 -431 409 -562 39
-45 71 -86 71 -90 0 -5 -51 -48 -112 -95 -129 -99 -116 -89 -337 -266 -248
-200 -458 -419 -646 -677 -90 -124 -195 -289 -195 -308 0 -23 50 -67 112 -98
50 -25 183 -75 228 -84 111 -25 214 -45 253 -49 192 -22 475 -87 682 -157 106
-36 234 -86 243 -94 5 -4 -58 -73 -224 -244 -78 -80 -159 -166 -179 -191 -116
-138 -326 -447 -545 -800 -73 -118 -141 -227 -151 -242 -11 -15 -19 -30 -19
-32 0 -3 -18 -35 -39 -70 -54 -87 -67 -135 -53 -184 15 -48 64 -100 121 -125
49 -21 98 -21 781 8 91 4 199 8 240 10 132 5 393 17 450 20 30 2 86 4 124 6
67 2 70 1 71 -21 5 -66 -59 -337 -170 -725 -69 -242 -83 -287 -95 -321 -9 -22
3 -32 54 -48 76 -25 463 -26 581 -2 151 31 297 82 421 147 89 47 221 136 274
185 19 18 45 41 57 52 l22 19 73 -72 c82 -79 213 -175 303 -221 99 -51 316
-128 415 -148 14 -3 36 -8 50 -11 14 -3 41 -8 60 -11 19 -3 42 -7 50 -9 8 -3
44 -7 80 -11 36 -3 66 -7 67 -8 3 -2 13 -110 18 -190 8 -135 19 -229 30 -246
17 -27 70 -34 300 -38 301 -6 328 -6 450 3 55 4 126 3 157 -2 55 -10 127 3
152 27 9 9 16 127 19 345 l2 140 25 3 c33 4 169 40 195 51 11 5 45 19 75 31
57 23 656 326 676 341 7 6 25 -4 50 -27 22 -20 55 -48 74 -62 19 -15 37 -29
40 -32 37 -41 382 -185 604 -251 55 -16 162 -44 236 -62 119 -27 153 -31 285
-32 130 0 160 3 224 23 83 26 172 78 196 116 9 13 18 48 21 78 7 82 7 917 0
1058 l-7 126 43 30 c37 27 155 98 253 154 32 18 280 164 305 179 8 5 47 29 85
52 122 74 281 203 374 304 25 27 55 59 66 70 19 20 72 90 126 165 86 119 188
333 237 496 50 165 50 173 -7 203 -18 10 -119 37 -166 44 -16 3 -70 12 -120
20 -49 9 -103 18 -120 21 -180 29 -404 77 -497 107 -153 49 -288 141 -288 194
0 17 20 34 83 72 160 98 368 304 586 577 187 235 317 484 414 791 36 114 67
253 82 365 4 25 8 59 11 75 14 92 18 328 9 446 -14 173 -15 175 -118 173 -70
-2 -157 -26 -262 -74 -114 -51 -405 -152 -562 -194 -72 -19 -93 -22 -93 -11 0
15 19 61 73 175 68 146 105 227 196 435 51 116 99 224 106 240 24 56 92 252
97 280 1 6 8 30 15 55 50 164 83 371 87 553 4 163 -21 307 -53 307 -12 0 -114
-36 -153 -54 -18 -8 -61 -26 -95 -40 -35 -15 -86 -37 -115 -50 -126 -57 -147
-66 -152 -66 -3 0 -29 -11 -58 -24 -73 -33 -229 -98 -313 -131 -38 -15 -83
-33 -100 -41 -82 -36 -423 -141 -520 -160 -11 -2 -65 -13 -120 -23 -91 -18
-166 -30 -295 -46 -24 -3 -96 -8 -160 -11 -63 -3 -127 -7 -142 -9 -39 -5 -41
12 -23 165 7 56 37 238 80 480 3 19 12 69 20 110 8 41 17 86 19 100 3 14 8 37
11 53 3 15 7 37 9 50 2 12 14 74 26 137 12 63 24 126 26 140 2 14 9 45 14 70
5 25 12 61 15 80 3 19 8 42 10 50 2 8 7 29 9 45 3 17 12 71 21 120 39 218 40
238 19 255 -19 17 -203 23 -289 10z"/>
</g>
</svg>
